#!OML:ASF H:\MichaelJackson\Top Level 1\Subject 1\Session 1\male.ASF
:FULLY-SPECIFIED
:DEGREES
61
root 23.2936 16.7474 -32.1761 9.96582 -0.981605 -3.73293
lowerback -8.08203 0.192546 4.97374
upperback -0.746222 -0.232453 1.04252
thorax 3.74578 -0.0454286 -1.73965
lowerneck -8.96373 -2.99482 -0.371333
upperneck 2.57525 -3.97677 0.532618
head 2.38163 -1.96624 0.0438451
rclavicle -1.05604e-015 -5.56597e-015
rhumerus -49.5582 41.9327 -112.876
rradius 127.268
rwrist -37.2936
rhand 7.60716 -49.1941
rfingers 7.12502
rthumb 32.8534 -76.2252
lclavicle -1.05604e-015 -5.56597e-015
lhumerus -39.6842 -16.1639 97.6953
lradius 40.5551
lwrist 13.6108
lhand -8.63383 11.5373
lfingers 7.12502
lthumb 17.2989 40.7874
rfemur -20.2843 1.9975 26.1734
rtibia 31.0858
rfoot -18.0564 -7.84565
rtoes 5.91864
lfemur -24.7347 1.44907 -18.4468
ltibia 37.4463
lfoot -19.4605 -2.58532
ltoes 35.7996
62
root 23.2941 16.7472 -32.1765 9.96795 -0.964316 -3.73748
lowerback -8.07934 0.197853 4.99178
upperback -0.759041 -0.226028 1.03446
thorax 3.73125 -0.0424318 -1.75741
lowerneck -8.94688 -2.96125 -0.358886
upperneck 2.58036 -3.93244 0.511593
head 2.37928 -1.94476 0.0374032
rclavicle 8.33653e-015 -1.51076e-014
rhumerus -49.5835 41.7366 -112.785
rradius 127.184
rwrist -37.3518
rhand 7.62322 -49.3562
rfingers 7.12502
rthumb 32.8687 -76.384
lclavicle 8.33653e-015 -1.51076e-014
lhumerus -39.686 -16.1746 97.6934
lradius 40.5014
lwrist 13.5724
lhand -8.60489 11.5467
lfingers 7.12502
lthumb 17.3267 40.7943
rfemur -20.2922 1.97899 26.1789
rtibia 31.0922
rfoot -18.0437 -7.8703
rtoes 5.69474
lfemur -24.7362 1.44625 -18.4435
ltibia 37.4421
lfoot -19.4637 -2.60935
ltoes 35.9072
63
root 23.2946 16.747 -32.1769 9.9708 -0.947012 -3.74338
lowerback -8.07792 0.201682 5.01415
upperback -0.774037 -0.221878 1.02442
thorax 3.71499 -0.0405618 -1.77992
lowerneck -8.93279 -2.92539 -0.345188
upperneck 2.58445 -3.88527 0.491983
head 2.3771 -1.92178 0.0312909
rclavicle -1.88845e-015 9.54166e-015
rhumerus -49.5937 41.5097 -112.673
rradius 127.043
rwrist -37.5121
rhand 7.5968 -49.5828
rfingers 7.12502
rthumb 32.8436 -76.6159
lclavicle -1.88845e-015 9.54166e-015
lhumerus -39.6942 -16.1823 97.6865
lradius 40.4476
lwrist 13.5353
lhand -8.57454 11.5542
lfingers 7.12502
lthumb 17.356 40.7993
rfemur -20.301 1.96574 26.1856
rtibia 31.0985
rfoot -18.0327 -7.89913
rtoes 5.47553
lfemur -24.7386 1.44514 -18.4388
ltibia 37.4378
lfoot -19.4656 -2.63381
ltoes 36.0113
64
root 23.295 16.7467 -32.1773 9.97145 -0.9265 -3.74787
lowerback -8.07692 0.202036 5.0371
upperback -0.788689 -0.222334 1.01175
thorax 3.69901 -0.0409449 -1.806
lowerneck -8.91862 -2.89285 -0.331755
upperneck 2.60177 -3.84267 0.474704
head 2.37945 -1.90098 0.025604
rclavicle -7.14382e-015 -1.30204e-014
rhumerus -49.5826 41.2498 -112.535
rradius 126.842
rwrist -37.7718
rhand 7.52804 -49.8797
rfingers 7.12502
rthumb 32.7782 -76.9265
lclavicle -7.14382e-015 -1.30204e-014
lhumerus -39.708 -16.1853 97.6726
lradius 40.3996
lwrist 13.5013
lhand -8.54292 11.5641
lfingers 7.12502
lthumb 17.3864 40.8065
rfemur -20.3055 1.95693 26.1913
rtibia 31.1043
rfoot -18.0275 -7.93494
rtoes 5.27997
lfemur -24.7388 1.44685 -18.4353
ltibia 37.4335
lfoot -19.4692 -2.66611
ltoes 36.1245
65
root 23.2954 16.7465 -32.1778 9.97359 -0.911459 -3.7574
lowerback -8.07481 0.203773 5.0643
upperback -0.805133 -0.221192 0.999068
thorax 3.68062 -0.0405643 -1.83429
lowerneck -8.90359 -2.86419 -0.318569
upperneck 2.6273 -3.80539 0.459838
head 2.38448 -1.88272 0.0203991
rclavicle 1.79527e-015 3.27995e-015
rhumerus -49.5538 40.9541 -112.367
rradius 126.58
rwrist -38.1103
rhand 7.4263 -50.2368
rfingers 7.12502
rthumb 32.6814 -77.3037
lclavicle 1.79527e-015 3.27995e-015
lhumerus -39.7282 -16.1837 97.6553
lradius 40.3569
lwrist 13.4686
lhand -8.52047 11.5674
lfingers 7.12502
lthumb 17.408 40.8079
rfemur -20.3121 1.95909 26.2013
rtibia 31.1089
rfoot -18.0199 -7.97525
rtoes 5.08449
lfemur -24.7411 1.44797 -18.4261
ltibia 37.4302
lfoot -19.4736 -2.69196
ltoes 36.2346
66
root 23.2954 16.7461 -32.1778 9.96786 -0.880749 -3.76174
lowerback -8.07755 0.197467 5.08349
upperback -0.815939 -0.230494 0.984866
thorax 3.67012 -0.0452065 -1.86083
lowerneck -8.88661 -2.84149 -0.306366
upperneck 2.65708 -3.77608 0.447285
head 2.39068 -1.86836 0.0157023
rclavicle 9.18137e-015 -2.6985e-014
rhumerus -49.5093 40.6337 -112.177
rradius 126.262
rwrist -38.501
rhand 7.29013 -50.6261
rfingers 7.12502
rthumb 32.5518 -77.7198
lclavicle 9.18137e-015 -2.6985e-014
lhumerus -39.7514 -16.1786 97.6315
lradius 40.3241
lwrist 13.4411
lhand -8.50203 11.5699
lfingers 7.12502
lthumb 17.4257 40.8089
rfemur -20.3049 1.96304 26.2089
rtibia 31.1122
rfoot -18.0201 -8.03005
rtoes 4.92276
lfemur -24.7334 1.45619 -18.42
ltibia 37.4275
lfoot -19.4822 -2.74726
ltoes 36.3632
67
root 23.2953 16.7457 -32.1777 9.96155 -0.850308 -3.76465
lowerback -8.08134 0.190928 5.09787
upperback -0.825759 -0.23977 0.970355
thorax 3.66125 -0.0498565 -1.885
lowerneck -8.86904 -2.82474 -0.295117
upperneck 2.69089 -3.75476 0.437336
head 2.39824 -1.85789 0.0115817
rclavicle 1.27346e-014 9.44227e-015
rhumerus -49.4659 40.2965 -111.975
rradius 125.894
rwrist -38.9254
rhand 7.11246 -51.0205
rfingers 7.12502
rthumb 32.3827 -78.1489
lclavicle 1.27346e-014 9.44227e-015
lhumerus -39.7772 -16.1726 97.6068
lradius 40.2999
lwrist 13.4178
lhand -8.4942 11.577
lfingers 7.12502
lthumb 17.4333 40.8153
rfemur -20.2958 1.97454 26.2146
rtibia 31.1149
rfoot -18.0219 -8.09093
rtoes 4.76988
lfemur -24.7252 1.46525 -18.4148
ltibia 37.425
lfoot -19.4897 -2.80406
ltoes 36.491
68
root 23.2951 16.7454 -32.1777 9.95615 -0.821511 -3.76704
lowerback -8.08729 0.185064 5.10811
upperback -0.834113 -0.247997 0.95639
thorax 3.65519 -0.0539654 -1.90617
lowerneck -8.84845 -2.81359 -0.284614
upperneck 2.72513 -3.74088 0.428668
head 2.40546 -1.85109 0.00768455
rclavicle 4.51303e-015 2.23633e-015
rhumerus -49.4315 39.9513 -111.768
rradius 125.482
rwrist -39.345
rhand 6.91473 -51.3978
rfingers 7.12502
rthumb 32.1945 -78.5646
lclavicle 4.51303e-015 2.23633e-015
lhumerus -39.8049 -16.1615 97.5805
lradius 40.2886
lwrist 13.3939
lhand -8.48734 11.5858
lfingers 7.12502
lthumb 17.4399 40.8235
rfemur -20.2879 1.99107 26.2192
rtibia 31.1182
rfoot -18.0264 -8.15171
rtoes 4.64294
lfemur -24.7174 1.4766 -18.4102
ltibia 37.4216
lfoot -19.4965 -2.86428
ltoes 36.6212
69
root 23.2949 16.7451 -32.1776 9.95188 -0.793977 -3.77018
lowerback -8.0947 0.18021 5.11592
upperback -0.840568 -0.254881 0.943662
thorax 3.65202 -0.0573558 -1.92455
lowerneck -8.82552 -2.80643 -0.274772
upperneck 2.75888 -3.73229 0.42069
head 2.41213 -1.84692 0.003909
rclavicle 1.05604e-014 -8.29926e-015
rhumerus -49.4136 39.6064 -111.562
rradius 125.032
rwrist -39.7403
rhand 6.70176 -51.7448
rfingers 7.12502
rthumb 31.9918 -78.9524
lclavicle 1.05604e-014 -8.29926e-015
lhumerus -39.8313 -16.1466 97.5536
lradius 40.2878
lwrist 13.3711
lhand -8.48029 11.5945
lfingers 7.12502
lthumb 17.4467 40.8316
rfemur -20.2829 2.00693 26.2244
rtibia 31.1222
rfoot -18.0245 -8.21292
rtoes 4.48826
lfemur -24.7106 1.48731 -18.4048
ltibia 37.4175
lfoot -19.5008 -2.9222
ltoes 36.7427
70
root 23.2947 16.7451 -32.1776 9.94992 -0.769427 -3.77646
lowerback -8.10288 0.177031 5.12439
upperback -0.845424 -0.259796 0.933164
thorax 3.65111 -0.0596973 -1.94077
lowerneck -8.80331 -2.79953 -0.265543
upperneck 2.77583 -3.72384 0.412254
head 2.41329 -1.84289 0.000243322
rclavicle 1.11195e-015 2.75814e-014
rhumerus -49.4135 39.2674 -111.36
rradius 124.545
rwrist -40.1043
rhand 6.48367 -52.0643
rfingers 7.12502
rthumb 31.7841 -79.3134
lclavicle 1.11195e-015 2.75814e-014
lhumerus -39.8548 -16.1249 97.5254
lradius 40.2975
lwrist 13.3491
lhand -8.47047 11.6093
lfingers 7.12502
lthumb 17.4561 40.8455
rfemur -20.2838 2.0289 26.2314
rtibia 31.128
rfoot -18.0182 -8.2727
rtoes 4.33847
lfemur -24.7057 1.49922 -18.3961
ltibia 37.4119
lfoot -19.5025 -2.9802
ltoes 36.8677
71
root 23.2947 16.745 -32.1777 9.94834 -0.74574 -3.77825
lowerback -8.10893 0.174533 5.12686
upperback -0.848896 -0.263201 0.923195
thorax 3.65056 -0.0613502 -1.95291
lowerneck -8.78256 -2.79122 -0.256365
upperneck 2.77815 -3.71337 0.403009
head 2.4098 -1.83791 -0.00345085
rclavicle 2.60905e-015 1.49089e-014
rhumerus -49.434 38.936 -111.164
rradius 124.017
rwrist -40.416
rhand 6.27444 -52.3541
rfingers 7.12502
rthumb 31.5848 -79.6424
lclavicle 2.60905e-015 1.49089e-014
lhumerus -39.8699 -16.1026 97.5003
lradius 40.3052
lwrist 13.3291
lhand -8.46383 11.6298
lfingers 7.12502
lthumb 17.4625 40.8655
rfemur -20.2862 2.04185 26.2338
rtibia 31.1354
rfoot -18.0132 -8.3262
rtoes 4.18287
lfemur -24.7016 1.50805 -18.3933
ltibia 37.4051
lfoot -19.5015 -3.0314
ltoes 36.9788
72
root 23.2946 16.7449 -32.1779 9.94593 -0.723219 -3.78034
lowerback -8.11201 0.172272 5.12794
upperback -0.85053 -0.266106 0.914817
thorax 3.65033 -0.0627488 -1.96255
lowerneck -8.7611 -2.7814 -0.247233
upperneck 2.76947 -3.70073 0.392057
head 2.40244 -1.83194 -0.00745431
rclavicle 1.11257e-014 -8.34896e-015
rhumerus -49.46 38.6009 -110.96
rradius 123.44
rwrist -40.6985
rhand 6.05613 -52.6308
rfingers 7.12502
rthumb 31.3768 -79.9598
lclavicle 1.11257e-014 -8.34896e-015
lhumerus -39.8783 -16.0797 97.4766
lradius 40.3113
lwrist 13.3168
lhand -8.46007 11.6462
lfingers 7.12502
lthumb 17.4661 40.8815
rfemur -20.2891 2.05173 26.2365
rtibia 31.1439
rfoot -18.0074 -8.37727
rtoes 4.01462
lfemur -24.6966 1.51669 -18.391
ltibia 37.3974
lfoot -19.5009 -3.07959
ltoes 37.0862
73
root 23.2945 16.7447 -32.178 9.94207 -0.6986 -3.78219
lowerback -8.11176 0.167861 5.12985
upperback -0.850038 -0.271811 0.906485
thorax 3.65024 -0.0654842 -1.9729
lowerneck -8.74245 -2.76952 -0.238875
upperneck 2.73512 -3.68507 0.380354
head 2.387 -1.82457 -0.0112083
rclavicle -7.3923e-016 -5.96354e-016
rhumerus -49.4869 38.2634 -110.75
rradius 122.8
rwrist -40.9668
rhand 5.831 -52.8974
rfingers 7.12502
rthumb 31.1623 -80.2678
lclavicle -7.3923e-016 -5.96354e-016
lhumerus -39.8782 -16.0544 97.4498
lradius 40.3124
lwrist 13.3112
lhand -8.45878 11.6561
lfingers 7.12502
lthumb 17.4674 40.8913
rfemur -20.2896 2.05941 26.2397
rtibia 31.1521
rfoot -18.0031 -8.42969
rtoes 3.8504
lfemur -24.6902 1.523 -18.3886
ltibia 37.3901
lfoot -19.502 -3.1254
ltoes 37.1907
